<?xml version="1.0" standalone="no"?><!DOCTYPE svg PUBLIC "-//W3C//DTD SVG 1.1//EN" "http://www.w3.org/Graphics/SVG/1.1/DTD/svg11.dtd"><svg class="icon" height="512" viewBox="0 0 1024 1024" version="1.1" xmlns="http://www.w3.org/2000/svg"><path d="M0.157176 234.544762c0 129.544127 229.180952 234.544762 512 234.544762S1024.157176 364.088889 1024.157176 234.544762 794.976223 0 512.157176 0 0.157176 105.000635 0.157176 234.544762z m512 336.132063c-220.566349 0-401.798095-62.577778-480.467302-148.561269A129.137778 129.137778 0 0 0 0.157176 508.099048c0 124.993016 228.368254 234.544762 512 234.544762S1024.157176 641.056508 1024.157176 508.099048c0-31.207619-15.766349-54.775873-31.532699-85.983492-78.669206 85.983492-259.900952 148.56127-480.467301 148.561269z m0 281.356191c-220.566349 0-401.798095-62.577778-480.467302-148.56127A116.65473 116.65473 0 0 0 0.157176 789.455238C0.157176 914.610794 228.52543 1024 512.157176 1024S1024.157176 922.412698 1024.157176 789.455238c0-31.207619-15.766349-54.613333-31.532699-85.983492-78.669206 85.983492-259.900952 148.56127-480.467301 148.56127z" fill="#17315A" /></svg>